<!-- Generated by IcoMoon.io -->
<svg version="1.1" xmlns="http://www.w3.org/2000/svg" width="57" height="32" viewBox="0 0 57 32">
<title>Client-2</title>
<path fill="#afb1b8" d="M27.556 7.019h-0.044c-0.067-0.004-0.134-0.006-0.202-0.007v0h-0.146c-0.127 0-0.257 0.003-0.385 0.010-0.010-0.001-0.019-0.001-0.029 0-1.166 0.066-2.309 0.358-3.365 0.859l-0.138 0.067v7.085l0.324-0.11c0.284-0.098 0.587-0.186 0.9-0.267 0.847-0.217 1.716-0.333 2.59-0.344v0.931c-0.116 0.001-0.228 0.004-0.341 0.010h-0.027c-0.673 0.037-1.34 0.139-1.993 0.306-0.827 0.207-1.625 0.518-2.374 0.925v-9.087c0.779-0.454 1.617-0.795 2.491-1.013 0.767-0.198 1.556-0.3 2.348-0.303h0.137c0.164 0.004 0.323 0.011 0.473 0.023 0.395 0.028 0.786 0.090 1.17 0.186v0.916c-0.373-0.087-0.752-0.144-1.133-0.171-0.008-0.001-0.015-0.001-0.023-0.002-0.079-0.007-0.158-0.013-0.232-0.013zM29.169 7.956c0.203 0.015 0.414 0.023 0.627 0.023 0.833-0.003 1.662-0.109 2.468-0.317 0.827-0.208 1.624-0.519 2.373-0.926v8.925c-0.779 0.454-1.618 0.795-2.492 1.013-0.767 0.197-1.556 0.299-2.348 0.302-0.6 0.005-1.198-0.066-1.781-0.21v-8.983c0.138 0.032 0.279 0.061 0.423 0.085 0.236 0.040 0.486 0.069 0.729 0.087zM33.711 8.025l-0.324 0.109c-0.298 0.1-0.598 0.19-0.9 0.269-0.879 0.226-1.783 0.342-2.69 0.345-0.211 0-0.406-0.006-0.593-0.018l-0.258-0.017v7.289l0.222 0.020c0.206 0.018 0.418 0.027 0.631 0.027 0.715-0.003 1.426-0.095 2.119-0.274 0.57-0.143 1.124-0.342 1.655-0.595l0.139-0.067v-7.088z"></path>
<path fill="#afb1b8" d="M22.956 19.588c-0.047-0.048-0.103-0.086-0.165-0.111s-0.129-0.037-0.196-0.034c-0.071-0.001-0.142 0.012-0.208 0.039-0.061 0.024-0.116 0.060-0.162 0.107s-0.081 0.102-0.104 0.163c-0.025 0.064-0.038 0.132-0.037 0.201v1.214c-0.003 0.086 0.013 0.171 0.048 0.249 0.029 0.062 0.070 0.118 0.121 0.163 0.049 0.041 0.105 0.070 0.167 0.086 0.059 0.017 0.12 0.025 0.181 0.025 0.068 0.001 0.135-0.014 0.196-0.042 0.061-0.027 0.116-0.065 0.162-0.112 0.045-0.047 0.081-0.102 0.106-0.163s0.039-0.127 0.039-0.194v-0.136h-0.317v0.108c0.001 0.037-0.005 0.074-0.019 0.108-0.010 0.026-0.026 0.049-0.046 0.068-0.020 0.016-0.042 0.028-0.066 0.035-0.021 0.007-0.044 0.011-0.066 0.011-0.028 0.003-0.057-0.001-0.083-0.012s-0.049-0.030-0.066-0.053c-0.030-0.049-0.045-0.105-0.042-0.163v-1.132c-0.002-0.063 0.011-0.125 0.039-0.181 0.016-0.026 0.040-0.046 0.067-0.059s0.058-0.018 0.088-0.014c0.027-0.001 0.055 0.005 0.079 0.017s0.046 0.030 0.062 0.052c0.036 0.047 0.054 0.104 0.053 0.163v0.105h0.314v-0.124c0.001-0.073-0.013-0.145-0.039-0.212-0.023-0.064-0.060-0.122-0.106-0.171z"></path>
<path fill="#afb1b8" d="M24.841 19.574c-0.101-0.085-0.229-0.133-0.361-0.133-0.065 0-0.129 0.012-0.189 0.034s-0.119 0.056-0.168 0.099c-0.053 0.047-0.095 0.105-0.123 0.17-0.032 0.074-0.048 0.154-0.046 0.235v1.164c-0.002 0.082 0.014 0.163 0.046 0.238 0.029 0.063 0.071 0.118 0.123 0.163 0.049 0.045 0.105 0.080 0.168 0.103 0.061 0.022 0.125 0.034 0.189 0.034s0.129-0.012 0.189-0.034c0.063-0.023 0.121-0.058 0.172-0.103s0.091-0.101 0.12-0.163c0.033-0.075 0.048-0.157 0.046-0.238v-1.164c0.002-0.081-0.014-0.161-0.046-0.235-0.028-0.064-0.069-0.122-0.12-0.17zM24.693 21.144c0.003 0.031-0.002 0.062-0.013 0.091s-0.028 0.055-0.051 0.077c-0.042 0.035-0.095 0.054-0.149 0.054s-0.107-0.019-0.149-0.054c-0.022-0.022-0.040-0.048-0.051-0.077s-0.015-0.060-0.013-0.091v-1.164c-0.003-0.031 0.002-0.062 0.013-0.091s0.028-0.055 0.051-0.077c0.042-0.035 0.095-0.054 0.149-0.054s0.107 0.019 0.149 0.054c0.022 0.022 0.040 0.048 0.051 0.077s0.015 0.060 0.013 0.091v1.164z"></path>
<path fill="#afb1b8" d="M27.318 21.664v-2.204h-0.305l-0.401 1.167h-0.006l-0.404-1.167h-0.302v2.204h0.315v-1.341h0.006l0.308 0.948h0.157l0.311-0.948h0.006v1.341h0.315z"></path>
<path fill="#afb1b8" d="M29.107 19.614c-0.049-0.054-0.11-0.096-0.178-0.12-0.074-0.024-0.151-0.036-0.228-0.034h-0.468v2.204h0.314v-0.861h0.162c0.098 0.004 0.196-0.016 0.283-0.060 0.071-0.040 0.131-0.098 0.172-0.168 0.036-0.059 0.061-0.124 0.072-0.192 0.012-0.083 0.018-0.167 0.017-0.251 0.003-0.106-0.007-0.212-0.031-0.315-0.021-0.076-0.061-0.146-0.116-0.203zM28.945 20.286c-0.001 0.040-0.011 0.079-0.029 0.115-0.018 0.034-0.046 0.061-0.081 0.077-0.047 0.021-0.097 0.030-0.148 0.028h-0.143v-0.749h0.162c0.049-0.002 0.097 0.007 0.142 0.028 0.032 0.019 0.058 0.047 0.074 0.081 0.017 0.039 0.027 0.081 0.028 0.123 0 0.046 0 0.095 0 0.146s0.003 0.104 0 0.151h-0.003z"></path>
<path fill="#afb1b8" d="M30.594 19.459h-0.257l-0.486 2.204h0.314l0.092-0.474h0.428l0.092 0.474h0.314l-0.498-2.204zM30.305 20.89l0.155-0.799h0.006l0.154 0.799h-0.314z"></path>
<path fill="#afb1b8" d="M32.624 20.787h-0.006l-0.474-1.328h-0.302v2.204h0.314v-1.326h0.006l0.48 1.326h0.295v-2.204h-0.314v1.328z"></path>
<path fill="#afb1b8" d="M34.543 19.459l-0.253 0.876h-0.006l-0.252-0.876h-0.333l0.431 1.273v0.932h0.314v-0.932l0.431-1.273h-0.332z"></path>
<path fill="#afb1b8" d="M22.080 22.286h0.151v0.425h0.103v-0.425h0.151v-0.087h-0.405v0.087z"></path>
<path fill="#afb1b8" d="M23.353 22.199l-0.198 0.512h0.109l0.042-0.116h0.204l0.044 0.116h0.112l-0.203-0.512h-0.109zM23.336 22.508l0.070-0.19 0.070 0.19h-0.139z"></path>
<path fill="#afb1b8" d="M24.611 22.522h0.118v0.066c-0.035 0.028-0.077 0.043-0.121 0.043-0.021 0.001-0.041-0.003-0.060-0.011s-0.035-0.021-0.048-0.038c-0.027-0.039-0.041-0.086-0.038-0.133 0-0.114 0.049-0.171 0.147-0.171 0.026-0.003 0.052 0.004 0.073 0.019s0.036 0.037 0.043 0.062l0.101-0.020c-0.022-0.1-0.094-0.151-0.217-0.151-0.066-0.002-0.13 0.022-0.179 0.066-0.026 0.025-0.046 0.056-0.058 0.090s-0.018 0.070-0.015 0.107c-0.003 0.070 0.020 0.139 0.066 0.192 0.025 0.026 0.055 0.046 0.089 0.059s0.069 0.018 0.105 0.016c0.080 0.002 0.158-0.027 0.217-0.081v-0.202h-0.222v0.086z"></path>
<path fill="#afb1b8" d="M25.895 22.199h-0.104v0.512h0.359v-0.087h-0.255v-0.425z"></path>
<path fill="#afb1b8" d="M26.982 22.199h-0.104v0.512h0.104v-0.512z"></path>
<path fill="#afb1b8" d="M28.044 22.541l-0.21-0.342h-0.1v0.512h0.096v-0.334l0.206 0.334h0.103v-0.512h-0.095v0.342z"></path>
<path fill="#afb1b8" d="M29.004 22.486h0.255v-0.087h-0.255v-0.112h0.274v-0.087h-0.378v0.512h0.389v-0.087h-0.285v-0.138z"></path>
<path fill="#afb1b8" d="M31.332 22.401h-0.202v-0.202h-0.103v0.512h0.103v-0.224h0.202v0.224h0.103v-0.512h-0.103v0.202z"></path>
<path fill="#afb1b8" d="M32.298 22.486h0.256v-0.087h-0.256v-0.112h0.275v-0.087h-0.378v0.512h0.388v-0.087h-0.285v-0.138z"></path>
<path fill="#afb1b8" d="M33.607 22.486c0.089-0.014 0.134-0.061 0.134-0.142 0.003-0.022-0.001-0.044-0.010-0.064s-0.023-0.037-0.041-0.050c-0.046-0.023-0.098-0.034-0.15-0.030h-0.217v0.512h0.103v-0.214h0.020c0.022-0.001 0.044 0.003 0.064 0.011 0.015 0.009 0.028 0.022 0.036 0.037l0.112 0.163h0.123l-0.062-0.1c-0.028-0.049-0.066-0.092-0.113-0.123zM33.504 22.415h-0.076v-0.129h0.081c0.035-0.003 0.071 0.001 0.104 0.012 0.007 0.007 0.013 0.015 0.017 0.024s0.006 0.019 0.005 0.029c-0 0.010-0.003 0.020-0.008 0.029s-0.012 0.016-0.020 0.022c-0.034 0.010-0.069 0.015-0.105 0.012z"></path>
<path fill="#afb1b8" d="M34.595 22.486h0.255v-0.087h-0.255v-0.112h0.275v-0.087h-0.379v0.512h0.388v-0.087h-0.285v-0.138z"></path>
</svg>
