<svg aria-hidden="true" style="position: absolute; width: 0; height: 0; overflow: hidden;" version="1.1" xmlns="http://www.w3.org/2000/svg" xmlns:xlink="http://www.w3.org/1999/xlink">
<defs>
<symbol id="astronaut" viewBox="0 0 32 32">
<path fill="#2196f3" style="fill: var(--color1, #2196f3)" d="M30.336 4.88c-0.057-0.171-0.204-0.298-0.383-0.325l-0.003-0-1.715-0.249-0.767-1.554c-0.16-0.327-0.697-0.327-0.858 0l-0.767 1.554-1.715 0.249c-0.233 0.035-0.41 0.234-0.41 0.474 0 0.134 0.055 0.256 0.144 0.343l1.242 1.21-0.293 1.707c-0.031 0.18 0.043 0.361 0.19 0.469 0.149 0.108 0.343 0.121 0.505 0.036l1.534-0.807 1.534 0.807c0.064 0.034 0.141 0.054 0.222 0.054 0.265 0 0.48-0.215 0.48-0.48 0-0.028-0.002-0.055-0.007-0.082l0 0.003-0.293-1.707 1.241-1.21c0.089-0.087 0.144-0.209 0.144-0.343 0-0.053-0.009-0.104-0.024-0.151l0.001 0.003zM28.126 6.072c-0.113 0.11-0.164 0.269-0.137 0.424l0.171 1-0.898-0.472c-0.065-0.035-0.142-0.055-0.223-0.055s-0.159 0.021-0.226 0.057l0.003-0.001-0.898 0.472 0.171-1c0.004-0.024 0.007-0.052 0.007-0.081 0-0.134-0.055-0.256-0.144-0.343l-0.727-0.709 1.004-0.146c0.156-0.023 0.29-0.121 0.361-0.262l0.449-0.909 0.449 0.909c0.070 0.142 0.204 0.24 0.361 0.262l1.004 0.146-0.726 0.708zM25.094 19.238h-0.958v0.958h0.958v-0.958zM25.094 21.153h-0.958v0.957h0.958v-0.957zM26.051 20.195h-0.957v0.957h0.957v-0.957zM24.137 20.195h-0.958v0.957h0.958v-0.957zM21.744 24.503h-0.957v0.957h0.957v-0.957zM21.744 26.418h-0.957v0.957h0.957v-0.957zM22.701 25.46h-0.958v0.957h0.958v-0.958zM20.786 25.46h-0.958v0.957h0.958v-0.958zM16 22.589h-0.957v0.957h0.957v-0.958zM16 24.503h-0.957v0.957h0.957v-0.957zM16.957 23.545h-0.957v0.958h0.957v-0.958zM15.042 23.545h-0.957v0.958h0.958v-0.958zM6.906 6.315h-0.957v0.957h0.957v-0.957zM6.906 8.229h-0.957v0.957h0.957v-0.957zM7.863 7.272h-0.957v0.958h0.957v-0.958zM5.949 7.272h-0.958v0.958h0.958v-0.958z"></path>
<path fill="#212121" style="fill: var(--color2, #212121)" d="M23.821 13.528c-0.251-0.338-0.627-0.571-1.058-0.631l-0.008-0.001c-0.068-0.010-0.147-0.016-0.228-0.016-0.369 0-0.708 0.125-0.978 0.335l0.004-0.003-1.125 0.861-1.703 1.272-1.218-0.486c2.173-0.975 3.692-3.148 3.692-5.672 0-3.431-2.802-6.222-6.247-6.222s-6.247 2.791-6.247 6.222c0 1.243 0.372 2.4 1.005 3.373l-2.485-0.022c-0.008 0-0.014 0.004-0.021 0.004-0.051 0.002-0.098 0.013-0.143 0.029l0.003-0.001c-0.011 0.004-0.023 0.007-0.034 0.012-0.006 0.002-0.011 0.003-0.017 0.006l-2.901 1.432c-0.001 0-0.001 0-0.001 0.001l-1.699 0.817c-0.022 0.010-0.040 0.020-0.058 0.032l0.001-0.001c-0.433 0.291-0.713 0.778-0.713 1.331 0 0.266 0.065 0.518 0.18 0.738l-0.004-0.009c0.197 0.38 0.532 0.666 0.936 0.794l0.011 0.003c0.144 0.047 0.31 0.075 0.482 0.075 0.277 0 0.537-0.070 0.763-0.194l-0.008 0.004 1.245-0.662 2.032-1.049 1.218-0.007-4.883 4.86c0 0.001-0.001 0.001-0.001 0.001l-1.202 1.196c-0.272 0.268-0.44 0.641-0.44 1.053 0 0.002 0 0.003 0 0.005v-0c0 0.399 0.156 0.775 0.44 1.058 0.271 0.269 0.644 0.436 1.055 0.436 0.001 0 0.002 0 0.003 0h-0c0.384 0 0.767-0.146 1.059-0.436l1.179-1.175 1.563-1.166 0.808 0.805-2.784 2.772c-0.272 0.268-0.44 0.641-0.44 1.053 0 0.001 0 0.003 0 0.004v-0c0 0.399 0.156 0.775 0.44 1.058 0.271 0.269 0.644 0.435 1.056 0.435 0.001 0 0.002 0 0.003 0h-0c0.384 0 0.767-0.145 1.059-0.435l4.028-4.014c0.006-0.006 0.014-0.008 0.020-0.014l4.636-5.078 3.115 0.443c0.023 0.003 0.045 0.005 0.067 0.005 0.058 0 0.114-0.014 0.168-0.034 0.016-0.006 0.030-0.014 0.045-0.021 0.017-0.009 0.035-0.014 0.052-0.025l2.884-1.914c0.011-0.007 0.016-0.019 0.026-0.027 0.012-0.009 0.026-0.013 0.037-0.023l1.14-1.069c0.312-0.292 0.506-0.707 0.506-1.166 0-0.359-0.119-0.69-0.319-0.957l0.003 0.004zM3.553 16.768c-0.088 0.049-0.193 0.077-0.305 0.077-0.070 0-0.138-0.011-0.201-0.032l0.005 0.001c-0.264-0.084-0.452-0.327-0.452-0.613 0-0.211 0.102-0.399 0.26-0.516l0.002-0.001 1.179-0.567 0.284 0.83 0.119 0.349-0.89 0.473zM6.691 15.128l-1.39 0.718-0.229-0.67-0.165-0.482 1.819-0.898-0.036 1.332zM20.242 9.186c0 0.824-0.197 1.602-0.537 2.297l-3.753-1.705c-0.039-0.516-0.307-0.962-0.702-1.242l-0.005-0.004 1.313-4.362c2.134 0.679 3.684 2.67 3.684 5.015zM9.662 9.186c0-2.903 2.373-5.265 5.29-5.265 0.227 0 0.449 0.019 0.669 0.047l-1.285 4.265c-0.017 0-0.033-0.005-0.051-0.005-0 0-0.001 0-0.001 0-0.926 0-1.677 0.75-1.68 1.675v0c0.003 0.926 0.754 1.675 1.68 1.675 0 0 0.001 0 0.001 0h-0c0.624 0 1.162-0.344 1.452-0.848l3.467 1.575c-0.965 1.298-2.508 2.145-4.251 2.145-2.917 0-5.29-2.362-5.29-5.265zM15.008 9.904c-0.002 0.397-0.325 0.718-0.722 0.718-0.001 0-0.001 0-0.002 0h0c-0 0-0.001 0-0.001 0-0.397 0-0.72-0.321-0.722-0.718v-0c0-0.396 0.324-0.718 0.723-0.718s0.723 0.322 0.723 0.718zM3.853 23.387c-0.099 0.098-0.234 0.158-0.384 0.158s-0.285-0.060-0.383-0.157l0 0c-0.098-0.097-0.158-0.231-0.158-0.379s0.060-0.282 0.158-0.379l0-0 0.864-0.86 0.764 0.761-0.86 0.857zM6.737 26.738c-0.099 0.098-0.234 0.158-0.384 0.158s-0.285-0.060-0.383-0.157l0 0c-0.098-0.097-0.158-0.231-0.158-0.379s0.060-0.282 0.158-0.379l0-0 0.864-0.861 0.764 0.761-0.861 0.857zM9.861 23.625l-0.001 0.001-1.584 1.579-0.765-0.761 1.584-1.577c0.036-0.036 0.058-0.079 0.080-0.122 0.006-0.012 0.018-0.023 0.023-0.036 0.015-0.037 0.017-0.077 0.023-0.115 0.003-0.022 0.012-0.043 0.012-0.066 0-0.032-0.011-0.063-0.018-0.094-0.006-0.029-0.006-0.058-0.017-0.086-0.022-0.047-0.050-0.088-0.082-0.124l0 0c-0.009-0.011-0.012-0.024-0.022-0.034h-0.001s0-0.001-0.001-0.002l-1.442-1.436c-0.015-0.015-0.035-0.021-0.052-0.034-0.023-0.019-0.048-0.036-0.075-0.050l-0.002-0.001c-0.024-0.011-0.052-0.021-0.081-0.028l-0.003-0.001c-0.027-0.008-0.058-0.015-0.090-0.018l-0.002-0c-0.006-0-0.013-0-0.020-0-0.023 0-0.045 0.002-0.068 0.005l0.003-0c-0.035 0.003-0.067 0.010-0.097 0.019l0.003-0.001c-0.030 0.009-0.057 0.025-0.085 0.040-0.018 0.010-0.038 0.014-0.055 0.026l-1.592 1.188-0.808-0.805 2.153-2.142 3.913 3.849-0.832 0.825zM15.981 17.328c-0.014-0.002-0.027 0.003-0.041 0.002-0.007-0-0.015-0.001-0.024-0.001-0.028 0-0.056 0.002-0.082 0.007l0.003-0c-0.027 0.005-0.053 0.010-0.079 0.019-0.033 0.012-0.062 0.026-0.088 0.043l0.002-0.001c-0.028 0.017-0.053 0.035-0.075 0.056l0-0c-0.011 0.010-0.025 0.015-0.036 0.026l-4.216 4.618-3.884-3.82 2.543-2.529c0.086-0.087 0.14-0.206 0.14-0.338 0-0.265-0.215-0.479-0.479-0.479-0.001 0-0.001 0-0.002 0h0l-1.991 0.011 0.025-1.442 2.786 0.024c1.134 1.164 2.717 1.886 4.468 1.886 0.001 0 0.002 0 0.003 0h-0c0.393 0 0.775-0.041 1.148-0.11 0.036 0.029 0.071 0.057 0.116 0.076l2.163 0.862 0.137 0.681 0.16 0.795-2.695-0.384zM19.607 17.488l-0.281-1.398 1.298-0.969 0.849 1.128-1.867 1.24zM22.976 14.947l-0.752 0.704-0.836-1.109 0.746-0.572c0.14-0.107 0.315-0.151 0.487-0.128 0.173 0.025 0.327 0.115 0.431 0.255 0.079 0.105 0.126 0.238 0.126 0.382 0 0.184-0.078 0.351-0.203 0.468l-0 0z"></path>
<path fill="#212121" style="fill: var(--color2, #212121)" d="M13.848 17.463l-1.923-1.915c-0.086-0.086-0.206-0.139-0.338-0.139s-0.251 0.053-0.338 0.139l-1.923 1.915c-0.087 0.087-0.14 0.207-0.14 0.339s0.054 0.252 0.14 0.339l-0-0 1.922 1.915c0.087 0.086 0.206 0.14 0.338 0.14s0.251-0.053 0.338-0.14v0l1.923-1.915c0.087-0.087 0.141-0.207 0.141-0.339s-0.054-0.253-0.141-0.339l-0-0zM11.588 19.041l-1.245-1.239 1.244-1.239 1.245 1.239-1.245 1.239zM17.045 5.371l-0.231 0.93c0.064 0.016 1.559 0.405 1.559 1.928h0.958c0-1.81-1.495-2.661-2.286-2.858zM19.33 9.186h-0.958v0.957h0.958v-0.957z"></path>
</symbol>
<symbol id="clock" viewBox="0 0 32 32">
<path fill="#212121" style="fill: var(--color2, #212121)" d="M31.296 15.301c-0.001-8.452-6.855-15.303-15.308-15.301s-15.303 6.855-15.301 15.308c0.002 6.788 4.422 12.543 10.541 14.545l0.108 0.031c0.061 0.019 0.123 0.029 0.187 0.029 0.12 0 0.238-0.032 0.342-0.094 0.135-0.080 0.236-0.207 0.283-0.357l3.865-12.25c1.054-0.004 1.906-0.859 1.906-1.913 0-1.056-0.856-1.913-1.913-1.913-0.303 0-0.59 0.071-0.845 0.196l0.011-0.005-5.106-5.107c-0.114-0.11-0.271-0.179-0.443-0.179-0.352 0-0.638 0.286-0.638 0.638 0 0.172 0.068 0.328 0.179 0.443l-0-0 5.103 5.109c-0.121 0.241-0.191 0.525-0.191 0.826 0 0.602 0.283 1.137 0.723 1.48l0.004 0.003-3.682 11.673c-7.278-2.681-11.004-10.754-8.324-18.032s10.754-11.004 18.032-8.323c7.278 2.681 11.004 10.754 8.323 18.032-1.345 3.581-4.003 6.406-7.374 7.938l-0.088 0.036-0.398-1.874c-0.063-0.291-0.318-0.506-0.624-0.506-0.164 0-0.313 0.062-0.426 0.163l0.001-0.001-3.837 3.426c-0.132 0.117-0.214 0.287-0.214 0.477 0 0.283 0.185 0.524 0.441 0.606l0.005 0.001 4.899 1.563c0.058 0.020 0.126 0.031 0.196 0.031 0.352 0 0.637-0.285 0.637-0.637 0-0.047-0.005-0.093-0.015-0.138l0.001 0.004-0.391-1.839c5.528-2.374 9.329-7.772 9.329-14.057 0-0.011 0-0.023-0-0.034v0.002zM15.992 14.664c0.352 0 0.638 0.286 0.638 0.638s-0.285 0.638-0.638 0.638v0c-0.352 0-0.638-0.286-0.638-0.638s0.286-0.638 0.638-0.638v0zM18.092 29.528l2.184-1.948 0.603 2.84-2.787-0.892z"></path>
<path fill="#2196f3" style="fill: var(--color1, #2196f3)" d="M15.354 3.185v1.275c0 0.352 0.286 0.638 0.638 0.638s0.638-0.285 0.638-0.638v0-1.275c0-0.352-0.285-0.638-0.638-0.638s-0.638 0.285-0.638 0.638v0zM3.876 14.664c-0.352 0-0.638 0.286-0.638 0.638s0.285 0.638 0.638 0.638h1.275c0.352 0 0.638-0.286 0.638-0.638s-0.285-0.638-0.638-0.638h-1.275zM28.108 15.939c0.352 0 0.638-0.286 0.638-0.638s-0.285-0.638-0.638-0.638h-1.275c-0.352 0-0.638 0.286-0.638 0.638s0.285 0.638 0.638 0.638h1.275z"></path>
</symbol>
<symbol id="company-five" viewBox="0 0 32 32">
<path fill="#" style="fill:" d="M2.416 23.738c0.124 0.14 0.189 0.316 0.186 0.496 0.001 0.011 0.001 0.024 0.001 0.038 0 0.111-0.025 0.216-0.069 0.31l0.002-0.004c-0.053 0.113-0.129 0.208-0.221 0.282l-0.002 0.001c-0.21 0.145-0.471 0.231-0.751 0.231-0.031 0-0.061-0.001-0.092-0.003l0.004 0h-1.475v-3.144h1.445c0.026-0.002 0.055-0.003 0.086-0.003 0.266 0 0.513 0.079 0.72 0.214l-0.005-0.003c0.093 0.072 0.168 0.163 0.216 0.264s0.071 0.213 0.065 0.325c0.008 0.173-0.051 0.343-0.168 0.48-0.113 0.124-0.264 0.211-0.435 0.245l-0.005 0.001c0.196 0.032 0.372 0.128 0.498 0.269zM0.686 23.264h0.618c0.14 0.009 0.279-0.028 0.393-0.105 0.045-0.037 0.081-0.084 0.104-0.137l0.001-0.002c0.018-0.041 0.029-0.088 0.029-0.138 0-0.011-0-0.021-0.001-0.031l0 0.001c0.001-0.008 0.001-0.017 0.001-0.027 0-0.051-0.011-0.099-0.030-0.143l0.001 0.002c-0.024-0.056-0.059-0.102-0.103-0.14l-0-0c-0.1-0.068-0.223-0.108-0.355-0.108-0.017 0-0.034 0.001-0.051 0.002l0.002-0h-0.608v0.825zM1.757 24.47c0.048-0.038 0.087-0.087 0.113-0.142l0.001-0.002c0.021-0.044 0.033-0.096 0.033-0.15 0-0.009-0-0.017-0.001-0.026l0 0.001c0-0.007 0.001-0.015 0.001-0.023 0-0.056-0.013-0.109-0.035-0.157l0.001 0.002c-0.028-0.058-0.067-0.106-0.115-0.144l-0.001-0.001c-0.106-0.072-0.237-0.115-0.378-0.115-0.014 0-0.029 0-0.043 0.001l0.002-0h-0.648v0.865h0.656c0.147 0.008 0.294-0.030 0.414-0.109zM5.369 25.091l-0.803-1.229h-0.302v1.229h-0.691v-3.145h1.309c0.028-0.002 0.060-0.003 0.093-0.003 0.308 0 0.593 0.102 0.822 0.273l-0.004-0.003c0.183 0.171 0.294 0.396 0.311 0.634 0.001 0.020 0.002 0.043 0.002 0.066 0 0.229-0.082 0.439-0.217 0.603l0.001-0.002c-0.162 0.167-0.377 0.282-0.618 0.319l-0.006 0.001 0.856 1.257h-0.752zM4.264 23.433h0.565c0.393 0 0.589-0.158 0.589-0.476 0-0.008 0.001-0.017 0.001-0.025 0-0.060-0.012-0.116-0.034-0.168l0.001 0.003c-0.027-0.064-0.065-0.118-0.112-0.163l-0-0c-0.107-0.081-0.243-0.13-0.39-0.13-0.019 0-0.038 0.001-0.057 0.002l0.002-0h-0.572l0.007 0.957zM9.148 24.457h-1.378l-0.243 0.633h-0.725l1.265-3.11h0.784l1.26 3.11h-0.724l-0.238-0.633zM8.964 23.981l-0.503-1.327-0.503 1.327h1.007zM13.878 25.091h-0.687l-1.539-2.138v2.138h-0.685v-3.145h0.685l1.539 2.151v-2.151h0.686v3.145zM17.795 24.338c-0.142 0.237-0.358 0.431-0.621 0.555-0.267 0.126-0.579 0.199-0.909 0.199-0.020 0-0.039-0-0.059-0.001l0.003 0h-1.221v-3.145h1.222c0.016-0 0.036-0.001 0.055-0.001 0.33 0 0.642 0.072 0.924 0.2l-0.014-0.006c0.263 0.121 0.479 0.312 0.621 0.549 0.141 0.256 0.215 0.538 0.215 0.825s-0.074 0.569-0.215 0.825zM17.009 24.263c0.196-0.209 0.303-0.475 0.303-0.751-0.002-0.291-0.117-0.555-0.304-0.751l0 0c-0.213-0.168-0.485-0.27-0.781-0.27-0.028 0-0.055 0.001-0.082 0.003l0.004-0h-0.476v2.036h0.476c0.024 0.002 0.051 0.002 0.079 0.002 0.296 0 0.568-0.102 0.783-0.272l-0.003 0.002zM9.578 4.453s8.857 3.062 8.67 7.492v7.495s-8.851-3.063-8.667-7.494l-0.003-7.493zM26.138 17.685c1.673-1.054 3.608-1.707 5.628-1.899v-2.346c-2.327 0.821-4.302 2.311-5.628 4.245z"></path>
<path fill="#" style="" d="M25.134 18.392c1.369-2.524 3.742-4.473 6.633-5.444v-6.76s-12.615 4.362-12.348 10.671v10.67s0.562-0.195 1.447-0.561c0-0.341 0-0.685 0.041-1.031 0.261-2.929 1.781-5.643 4.228-7.546z"></path>
<path fill="#" style="" d="M23.934 22.356c0.074-0.807 0.23-1.549 0.462-2.257l-0.020 0.072c-1.524 1.643-2.446 3.683-2.638 5.831-0.017 0.177-0.029 0.39-0.033 0.606l-0 0.009c1.052-0.46 1.849-0.852 2.629-1.27l-0.203 0.099c-0.151-0.655-0.237-1.407-0.237-2.179 0-0.321 0.015-0.638 0.044-0.951l-0.003 0.040zM24.435 22.394c-0.025 0.259-0.039 0.56-0.039 0.864 0 0.684 0.071 1.352 0.206 1.997l-0.011-0.063c3.446-1.889 7.319-4.806 7.17-8.332v-0.307c-2.462 0.252-4.766 1.238-6.557 2.805-0.395 0.888-0.668 1.918-0.766 2.998l-0.003 0.038z"></path>
</symbol>
<symbol id="company-four" viewBox="0 0 ">
<path d="M24.1462 21.1029H24.1433C21.7453 21.1029 19.8013 22.8305 19.8013 24.9616V24.9641C19.8013 27.0952 21.7453 28.8228 24.1433 28.8228H24.1462C26.5442 28.8228 28.4882 27.0952 28.4882 24.9641V24.9616C28.4882 22.8305 26.5442 21.1029 24.1462 21.1029Z" fill="#"/>
<path d="M56.195 19.8693C56.1882 16.9094 54.8623 14.0723 52.5074 11.979C50.1525 9.88574 46.9604 8.70673 43.6297 8.70001V8.70001C40.298 8.70539 37.1045 9.8838 34.7484 11.9772C32.3922 14.0706 31.0655 16.9085 31.0587 19.8693V19.8693V36.1922C31.0587 36.1922 56.1922 33.7045 56.195 19.8719V19.8693Z" fill="#"/>
<path d="M11 41.5495C11.006 43.6091 11.9291 45.5829 13.5676 47.0395C15.2061 48.4961 17.4267 49.3171 19.7442 49.3231V49.3231C22.0612 49.3171 24.2814 48.4964 25.9197 47.0404C27.5581 45.5843 28.4816 43.6112 28.4884 41.5521V41.5521V30.1944C28.4884 30.1944 11 31.9267 11 41.5495ZM19.7442 43.5845C19.2913 43.5845 18.8486 43.4652 18.472 43.2415C18.0955 43.0179 17.802 42.7001 17.6287 42.3283C17.4554 41.9564 17.41 41.5473 17.4984 41.1525C17.5867 40.7578 17.8048 40.3952 18.125 40.1106C18.4453 39.826 18.8533 39.6322 19.2975 39.5537C19.7416 39.4751 20.202 39.5154 20.6205 39.6695C21.0389 39.8235 21.3965 40.0843 21.6481 40.419C21.8997 40.7536 22.034 41.1471 22.034 41.5495C22.0351 41.8174 21.9767 42.0828 21.8622 42.3306C21.7476 42.5784 21.5791 42.8036 21.3664 42.9934C21.1536 43.1832 20.9008 43.3338 20.6224 43.4365C20.3441 43.5392 20.0456 43.5921 19.7442 43.5921V43.5845Z" fill="#"/>
<path d="M37.4177 42.4638H35.7302V44.207H34.8513V39.9413H37.6287V40.6533H35.7302V41.7548H37.4177V42.4638ZM41.6423 42.1708C41.6423 42.5908 41.5681 42.9589 41.4197 43.2753C41.2712 43.5917 41.0583 43.8359 40.781 44.0078C40.5056 44.1796 40.1892 44.2656 39.8318 44.2656C39.4783 44.2656 39.1628 44.1806 38.8855 44.0107C38.6082 43.8408 38.3933 43.5986 38.241 43.2841C38.0886 42.9677 38.0115 42.6044 38.0095 42.1943V41.9833C38.0095 41.5634 38.0847 41.1943 38.2351 40.8759C38.3875 40.5556 38.6013 40.3105 38.8767 40.1406C39.1541 39.9687 39.4705 39.8828 39.8259 39.8828C40.1814 39.8828 40.4968 39.9687 40.7722 40.1406C41.0496 40.3105 41.2634 40.5556 41.4138 40.8759C41.5662 41.1943 41.6423 41.5624 41.6423 41.9804V42.1708ZM40.7517 41.9775C40.7517 41.5302 40.6716 41.1904 40.5115 40.9579C40.3513 40.7255 40.1228 40.6093 39.8259 40.6093C39.531 40.6093 39.3035 40.7245 39.1433 40.955C38.9832 41.1835 38.9021 41.5195 38.9001 41.9628V42.1708C38.9001 42.6064 38.9802 42.9443 39.1404 43.1845C39.3005 43.4247 39.531 43.5449 39.8318 43.5449C40.1267 43.5449 40.3533 43.4296 40.5115 43.1992C40.6697 42.9667 40.7498 42.6288 40.7517 42.1855V41.9775ZM44.4929 43.0878C44.4929 42.9218 44.4343 42.7949 44.3171 42.707C44.2 42.6171 43.989 42.5234 43.6843 42.4257C43.3796 42.3261 43.1384 42.2285 42.9607 42.1328C42.4763 41.871 42.2341 41.5185 42.2341 41.0751C42.2341 40.8447 42.2986 40.6396 42.4275 40.4599C42.5583 40.2783 42.7449 40.1367 42.9871 40.0351C43.2312 39.9335 43.5046 39.8828 43.8074 39.8828C44.1121 39.8828 44.3835 39.9384 44.6218 40.0497C44.8601 40.1591 45.0447 40.3144 45.1755 40.5156C45.3083 40.7167 45.3748 40.9453 45.3748 41.2011H44.4958C44.4958 41.0058 44.4343 40.8544 44.3113 40.747C44.1882 40.6376 44.0154 40.5829 43.7927 40.5829C43.5779 40.5829 43.4109 40.6288 43.2917 40.7206C43.1726 40.8105 43.113 40.9296 43.113 41.0781C43.113 41.2167 43.1824 41.3329 43.321 41.4267C43.4617 41.5204 43.6677 41.6083 43.9392 41.6904C44.4392 41.8408 44.8035 42.0273 45.032 42.2499C45.2605 42.4726 45.3748 42.7499 45.3748 43.082C45.3748 43.4511 45.2351 43.7411 44.9558 43.9521C44.6765 44.1611 44.3005 44.2656 43.8279 44.2656C43.4998 44.2656 43.2009 44.206 42.9314 44.0869C42.6619 43.9658 42.4558 43.8007 42.3132 43.5917C42.1726 43.3828 42.1023 43.1406 42.1023 42.8652H42.9841C42.9841 43.3359 43.2654 43.5712 43.8279 43.5712C44.0369 43.5712 44.2 43.5292 44.3171 43.4453C44.4343 43.3593 44.4929 43.2402 44.4929 43.0878ZM49.1833 40.6533H47.8767V44.207H46.9978V40.6533H45.7087V39.9413H49.1833V40.6533ZM52.2537 42.3583H50.5662V43.5009H52.5466V44.207H49.6873V39.9413H52.5408V40.6533H50.5662V41.6699H52.2537V42.3583ZM54.6414 42.6454H53.9412V44.207H53.0623V39.9413H54.6472C55.1511 39.9413 55.5398 40.0536 55.8132 40.2783C56.0867 40.5029 56.2234 40.8203 56.2234 41.2304C56.2234 41.5214 56.1599 41.7646 56.033 41.9599C55.908 42.1533 55.7175 42.3076 55.4617 42.4228L56.3845 44.166V44.207H55.4412L54.6414 42.6454ZM53.9412 41.9335H54.6501C54.8708 41.9335 55.0417 41.8779 55.1628 41.7665C55.2839 41.6533 55.3445 41.498 55.3445 41.3007C55.3445 41.0995 55.2869 40.9413 55.1716 40.8261C55.0583 40.7109 54.8835 40.6533 54.6472 40.6533H53.9412V41.9335ZM59.2673 42.704V44.207H58.3884V39.9413H60.0525C60.3728 39.9413 60.6541 39.9999 60.8962 40.1171C61.1404 40.2343 61.3279 40.4013 61.4587 40.6181C61.5896 40.8329 61.655 41.0781 61.655 41.3535C61.655 41.7714 61.5115 42.1015 61.2244 42.3437C60.9392 42.5839 60.5437 42.704 60.0378 42.704H59.2673ZM59.2673 41.9921H60.0525C60.2849 41.9921 60.4617 41.9374 60.5828 41.8281C60.7058 41.7187 60.7673 41.5624 60.7673 41.3593C60.7673 41.1503 60.7058 40.9814 60.5828 40.8525C60.4597 40.7236 60.2898 40.6572 60.073 40.6533H59.2673V41.9921ZM64.8279 42.3583H63.1404V43.5009H65.1208V44.207H62.2615V39.9413H65.115V40.6533H63.1404V41.6699H64.8279V42.3583ZM68.906 40.6533H67.5994V44.207H66.7205V40.6533H65.4314V39.9413H68.906V40.6533ZM71.9763 42.3583H70.2888V43.5009H72.2693V44.207H69.4099V39.9413H72.2634V40.6533H70.2888V41.6699H71.9763V42.3583ZM74.364 42.6454H73.6638V44.207H72.7849V39.9413H74.3699C74.8738 39.9413 75.2625 40.0536 75.5359 40.2783C75.8093 40.5029 75.946 40.8203 75.946 41.2304C75.946 41.5214 75.8826 41.7646 75.7556 41.9599C75.6306 42.1533 75.4402 42.3076 75.1843 42.4228L76.1072 44.166V44.207H75.1638L74.364 42.6454ZM73.6638 41.9335H74.3728C74.5935 41.9335 74.7644 41.8779 74.8855 41.7665C75.0066 41.6533 75.0671 41.498 75.0671 41.3007C75.0671 41.0995 75.0095 40.9413 74.8943 40.8261C74.781 40.7109 74.6062 40.6533 74.3699 40.6533H73.6638V41.9335ZM78.8289 43.0878C78.8289 42.9218 78.7703 42.7949 78.6531 42.707C78.5359 42.6171 78.325 42.5234 78.0203 42.4257C77.7156 42.3261 77.4744 42.2285 77.2966 42.1328C76.8123 41.871 76.5701 41.5185 76.5701 41.0751C76.5701 40.8447 76.6345 40.6396 76.7634 40.4599C76.8943 40.2783 77.0808 40.1367 77.323 40.0351C77.5671 39.9335 77.8406 39.8828 78.1433 39.8828C78.448 39.8828 78.7195 39.9384 78.9578 40.0497C79.196 40.1591 79.3806 40.3144 79.5115 40.5156C79.6443 40.7167 79.7107 40.9453 79.7107 41.2011H78.8318C78.8318 41.0058 78.7703 40.8544 78.6472 40.747C78.5242 40.6376 78.3513 40.5829 78.1287 40.5829C77.9138 40.5829 77.7468 40.6288 77.6277 40.7206C77.5085 40.8105 77.449 40.9296 77.449 41.0781C77.449 41.2167 77.5183 41.3329 77.657 41.4267C77.7976 41.5204 78.0037 41.6083 78.2751 41.6904C78.7751 41.8408 79.1394 42.0273 79.3679 42.2499C79.5964 42.4726 79.7107 42.7499 79.7107 43.082C79.7107 43.4511 79.571 43.7411 79.2917 43.9521C79.0125 44.1611 78.6365 44.2656 78.1638 44.2656C77.8357 44.2656 77.5369 44.206 77.2673 44.0869C76.9978 43.9658 76.7917 43.8007 76.6492 43.5917C76.5085 43.3828 76.4382 43.1406 76.4382 42.8652H77.3201C77.3201 43.3359 77.6013 43.5712 78.1638 43.5712C78.3728 43.5712 78.5359 43.5292 78.6531 43.4453C78.7703 43.3593 78.8289 43.2402 78.8289 43.0878Z" fill="#"/>
</symbol>
<symbol id="company-one" viewBox="0 0 32 32">
<path fill="#" style="fill: var(--color3, #)" d="M6.128 0l4.771 4.517-8.857-0.005v21.915h23.149v-8.379l4.766 4.512v-22.559h-23.83zM24.982 17.517l-13.528-12.807h13.528v12.807zM20.782 23.22h-15.076v-14.738h1.066v13.74h14.011v0.997zM9.266 29.345l-0.557 1.147-0.557-1.147h-0.467l0.813 1.529v0.891h0.422v-0.891l0.811-1.529h-0.465zM9.966 31.765l0.196-0.564h0.938l0.197 0.564h0.439l-0.916-2.42h-0.378l-0.914 2.42h0.437zM10.631 29.859l0.351 1.004h-0.701l0.351-1.004zM12.848 30.804c-0.057 0.085-0.091 0.19-0.091 0.303 0 0.001 0 0.003 0 0.004v-0c0 0.204 0.072 0.37 0.214 0.497s0.336 0.19 0.575 0.19c0.239 0 0.445-0.065 0.618-0.195l0.136 0.161h0.468l-0.355-0.421c0.14-0.191 0.209-0.435 0.209-0.733h-0.351c0 0.163-0.034 0.311-0.101 0.444l-0.468-0.552 0.165-0.12c0.1-0.068 0.184-0.152 0.249-0.249l0.002-0.003c0.048-0.079 0.076-0.174 0.076-0.275 0-0.001 0-0.003-0-0.004v0c0-0.003 0-0.006 0-0.009 0-0.149-0.065-0.283-0.169-0.374l-0.001-0c-0.108-0.097-0.251-0.157-0.408-0.157-0.008 0-0.017 0-0.025 0l0.001-0c-0.195 0-0.35 0.056-0.465 0.166s-0.173 0.259-0.173 0.449c0 0.078 0.018 0.157 0.054 0.241 0.038 0.083 0.104 0.184 0.197 0.302-0.179 0.129-0.3 0.24-0.36 0.334zM13.94 31.34c-0.104 0.084-0.237 0.135-0.382 0.136h-0c-0.006 0-0.013 0-0.020 0-0.104 0-0.199-0.040-0.27-0.106l0 0c-0.067-0.066-0.108-0.157-0.108-0.259 0-0.005 0-0.009 0-0.014l-0 0.001c0-0.129 0.067-0.245 0.2-0.346l0.052-0.037 0.528 0.624zM13.507 30.267c-0.114-0.141-0.172-0.257-0.172-0.351 0-0.081 0.024-0.148 0.070-0.201 0.044-0.049 0.107-0.081 0.178-0.081 0.004 0 0.007 0 0.010 0l-0.001-0c0.003-0 0.006-0 0.009-0 0.067 0 0.127 0.026 0.173 0.068l-0-0c0.048 0.045 0.072 0.099 0.072 0.161 0 0.003 0 0.006 0 0.009 0 0.090-0.040 0.171-0.103 0.226l-0 0-0.052 0.041-0.184 0.127zM17.446 31.582c0.166-0.145 0.261-0.347 0.286-0.605h-0.419c-0.022 0.173-0.075 0.296-0.158 0.37s-0.208 0.112-0.372 0.112c-0.18 0-0.318-0.069-0.412-0.206s-0.14-0.337-0.14-0.599v-0.214c0.003-0.259 0.052-0.453 0.15-0.587 0.099-0.134 0.24-0.201 0.422-0.201 0.157 0 0.276 0.039 0.357 0.116s0.133 0.202 0.153 0.376h0.419c-0.027-0.265-0.121-0.47-0.285-0.615s-0.378-0.218-0.645-0.218c-0.198 0-0.373 0.048-0.525 0.142-0.152 0.097-0.271 0.234-0.345 0.396l-0.002 0.006c-0.077 0.169-0.122 0.367-0.122 0.576 0 0.010 0 0.020 0 0.030l-0-0.001v0.226c0.003 0.223 0.045 0.418 0.125 0.587s0.193 0.298 0.339 0.39c0.148 0.091 0.318 0.136 0.511 0.136 0.276 0 0.497-0.072 0.663-0.216zM19.918 31.243c0.082-0.18 0.123-0.388 0.123-0.625v-0.134c0-0.007 0-0.016 0-0.024 0-0.216-0.047-0.421-0.131-0.605l0.004 0.009c-0.077-0.171-0.199-0.31-0.35-0.406l-0.004-0.002c-0.144-0.090-0.318-0.143-0.505-0.143-0.006 0-0.013 0-0.019 0h0.001c-0.197 0-0.372 0.048-0.525 0.144-0.152 0.095-0.27 0.233-0.354 0.414-0.079 0.175-0.125 0.38-0.125 0.595 0 0.011 0 0.021 0 0.032l-0-0.002v0.136c0.001 0.232 0.043 0.436 0.126 0.613 0.084 0.178 0.203 0.315 0.356 0.411 0.154 0.095 0.329 0.143 0.525 0.143 0.199 0 0.374-0.048 0.526-0.143 0.152-0.097 0.27-0.234 0.352-0.413zM19.468 29.874c0.102 0.143 0.152 0.349 0.152 0.618v0.126c0 0.272-0.050 0.48-0.151 0.622-0.099 0.142-0.242 0.213-0.429 0.213-0.005 0-0.011 0-0.017 0-0.171 0-0.323-0.086-0.413-0.216l-0.001-0.002c-0.104-0.145-0.155-0.351-0.155-0.617v-0.14c0.002-0.26 0.054-0.462 0.156-0.603 0.091-0.13 0.24-0.215 0.409-0.215 0.006 0 0.012 0 0.018 0l-0.001-0c0.187 0 0.33 0.072 0.431 0.214z"></path>
</symbol>
<symbol id="company-six" viewBox="0 0 32 ">
<path d="M53.425 27.408a2.947 2.947 0 0 1-.605-1.988v-2.884c0-.883.2-1.555.602-2.015.4-.46 1.089-.688 2.065-.686.917 0 1.569.196 1.953.587.42.499.625 1.109.578 1.724v.678h-1.64v-.687c.005-.224-.01-.449-.048-.671a.65.65 0 0 0-.235-.399.95.95 0 0 0-.594-.155 1.005 1.005 0 0 0-.625.164.768.768 0 0 0-.272.44 3.332 3.332 0 0 0-.065.713v3.499c-.026.337.047.675.21.982a.77.77 0 0 0 .328.238.9.9 0 0 0 .424.055.893.893 0 0 0 .58-.158.704.704 0 0 0 .245-.425c.038-.232.056-.467.051-.701v-.71h1.641v.648a2.64 2.64 0 0 1-.567 1.813c-.377.428-1.02.642-1.964.642s-1.658-.229-2.062-.704ZM60.257 27.438c-.414-.45-.622-1.103-.622-1.968v-3.033c0-.857.208-1.505.622-1.945.414-.44 1.107-.659 2.079-.657.965 0 1.654.22 2.069.657.414.44.625 1.088.625 1.945v3.032c0 .857-.21 1.514-.632 1.966-.421.451-1.107.677-2.062.677-.955 0-1.661-.229-2.08-.674Zm2.843-.728c.149-.28.216-.589.197-.897v-3.714a1.649 1.649 0 0 0-.193-.88.776.776 0 0 0-.335-.241.906.906 0 0 0-.433-.052.918.918 0 0 0-.434.052.787.787 0 0 0-.337.241c-.15.275-.217.578-.197.88v3.731c-.02.309.047.617.197.898.096.094.214.17.346.222a1.16 1.16 0 0 0 .843 0c.133-.052.25-.128.346-.222v-.018ZM67.004 19.924h1.766l1.328 5.595 1.36-5.595h1.718L73.35 28h-1.271l-.136-5.613L70.632 28h-1.02l-1.358-5.634L68.128 28h-1.284l.16-8.076ZM75.33 19.924h2.752c1.585 0 2.378.764 2.378 2.293 0 1.464-.835 2.196-2.504 2.194h-.937V28H75.32l.01-8.077Zm2.351 3.451c.168.019.338.006.5-.039.161-.044.31-.117.434-.216.195-.273.281-.593.245-.912a2.529 2.529 0 0 0-.082-.733.593.593 0 0 0-.125-.222.703.703 0 0 0-.214-.162 1.76 1.76 0 0 0-.758-.13h-.659v2.414h.66ZM82.91 19.924h1.824L86.606 28h-1.584l-.37-1.862h-1.627L82.645 28h-1.607l1.871-8.076Zm1.559 5.279-.635-3.39-.636 3.39h1.27ZM88.117 19.924h1.19l2.275 4.607v-4.607h1.41V28h-1.131l-2.29-4.81V28h-1.457l.003-8.076ZM96.294 24.92l-1.892-4.985h1.594l1.155 3.203 1.083-3.203h1.56l-1.869 4.986V28h-1.63v-3.08ZM56.048 31.532v.422h-1.386v3.282h-.581v-3.282h-1.393v-.422h3.36ZM60.393 35.236h-.449a.2.2 0 0 1-.126-.035.194.194 0 0 1-.074-.085l-.401-.88H57.42l-.4.88a.242.242 0 0 1-.062.1.206.206 0 0 1-.126.035h-.448l1.699-3.704h.59l1.72 3.69Zm-2.813-1.375h1.603l-.68-1.508a2.694 2.694 0 0 1-.125-.349c-.024.07-.044.138-.064.197l-.062.155-.672 1.505ZM63.321 34.872c.107.005.213.005.32 0 .091-.008.182-.023.271-.044a2.11 2.11 0 0 0 .245-.067c.075-.027.15-.059.228-.091v-.833h-.68a.137.137 0 0 1-.092-.03.086.086 0 0 1-.026-.03.074.074 0 0 1-.008-.037v-.284h1.318v1.42a2.573 2.573 0 0 1-.716.301c-.14.036-.281.061-.425.077a5.13 5.13 0 0 1-.496.023 2.59 2.59 0 0 1-.856-.138 2.09 2.09 0 0 1-.68-.387 1.79 1.79 0 0 1-.438-.587 1.851 1.851 0 0 1-.156-.768 1.921 1.921 0 0 1 .153-.774 1.7 1.7 0 0 1 .438-.587c.194-.167.425-.297.68-.384.29-.095.6-.142.91-.138.158 0 .316.01.472.032.138.02.274.051.404.094.12.038.233.088.34.147.104.058.203.122.296.193l-.163.229a.142.142 0 0 1-.055.05.17.17 0 0 1-.078.02.222.222 0 0 1-.105-.029 2.096 2.096 0 0 1-.167-.088 1.504 1.504 0 0 0-.227-.1 2.128 2.128 0 0 0-.313-.082 2.613 2.613 0 0 0-.431-.032 2.01 2.01 0 0 0-.656.103 1.44 1.44 0 0 0-.5.293 1.29 1.29 0 0 0-.315.46 1.731 1.731 0 0 0 0 1.235c.074.175.19.333.34.467.139.127.308.227.495.293.216.064.445.089.673.073ZM68.736 34.814h1.855v.422H68.17v-3.704h.58l-.013 3.282ZM72.52 35.236h-.58v-3.704h.58v3.704ZM74.681 31.55a.28.28 0 0 1 .089.067l2.483 2.792a.881.881 0 0 1 0-.132V31.517h.506v3.72h-.292a.275.275 0 0 1-.126-.021.328.328 0 0 1-.091-.07l-2.48-2.79v2.88h-.486v-3.704h.302c.033 0 .066.006.095.017ZM82.036 31.532v.407h-2.058v1.223h1.668v.393h-1.668v1.264h2.058v.408H79.38v-3.695h2.656ZM21.162 8.655l25.795 6.324v22.158l-25.795-6.32V8.654Zm-1.655-1.888v25.126l29.1 7.136V13.905l-29.1-7.138Z" fill="#"/><path d="M35.104 50.692 6 43.55V18.427l29.104 7.139v25.126Z" fill="#"/><path d="m19.99 8.37 25.458 6.245-10.827 9.35L9.16 17.718 19.99 8.37Zm-.483-1.603L6 18.427l29.104 7.14 13.504-11.662-29.1-7.138ZM36.742 49.279 48.608 39.03 36.742 36.12v13.16Z" fill="#"/>
</symbol>
<symbol id="company-three" viewBox="0 0 32 32">
<path fill="#" style="" d="M5.266 30.294c0.011 0 0.023 0.003 0.033 0.007s0.020 0.010 0.028 0.017l-0-0 0.155 0.148c-0.121 0.12-0.269 0.216-0.437 0.282-0.172 0.064-0.371 0.101-0.578 0.101-0.014 0-0.028-0-0.042-0.001l0.002 0c-0.010 0-0.021 0-0.032 0-0.197 0-0.386-0.035-0.56-0.099l0.011 0.004c-0.17-0.062-0.316-0.152-0.439-0.267l0.001 0.001c-0.12-0.113-0.215-0.25-0.28-0.403l-0.003-0.008c-0.063-0.152-0.1-0.328-0.1-0.513 0-0.005 0-0.010 0-0.015v0.001c-0-0.008-0-0.018-0-0.027 0-0.362 0.157-0.688 0.407-0.912l0.001-0.001c0.132-0.116 0.291-0.207 0.465-0.268 0.191-0.064 0.395-0.096 0.599-0.094 0.011-0 0.024-0 0.037-0 0.186 0 0.364 0.031 0.53 0.089l-0.011-0.003c0.154 0.058 0.295 0.139 0.417 0.238l-0.13 0.158c-0.009 0.011-0.020 0.021-0.032 0.028l-0.001 0c-0.013 0.008-0.029 0.012-0.045 0.012-0.003 0-0.005-0-0.008-0l0 0c-0.021-0.001-0.041-0.007-0.058-0.017l0.001 0-0.069-0.043-0.097-0.054c-0.089-0.043-0.191-0.076-0.3-0.093l-0.006-0.001c-0.064-0.011-0.139-0.017-0.214-0.017-0.006 0-0.012 0-0.018 0h0.001c-0.004-0-0.009-0-0.014-0-0.149 0-0.292 0.026-0.425 0.074l0.009-0.003c-0.131 0.046-0.243 0.114-0.339 0.2l0.001-0.001c-0.096 0.091-0.171 0.199-0.219 0.316-0.050 0.119-0.079 0.258-0.079 0.403 0 0.005 0 0.010 0 0.015v-0.001c-0 0.005-0 0.011-0 0.017 0 0.147 0.029 0.287 0.082 0.414l-0.003-0.007c0.048 0.117 0.121 0.223 0.215 0.315 0.089 0.085 0.199 0.153 0.322 0.196 0.127 0.046 0.262 0.068 0.399 0.068 0.006 0 0.012 0 0.019 0 0.077 0 0.152-0.005 0.227-0.015l-0.009 0.001c0.197-0.020 0.373-0.099 0.513-0.219l-0.001 0.001c0.020-0.016 0.045-0.026 0.073-0.027h0zM9.745 29.549c0 0.005 0 0.010 0 0.016 0 0.184-0.039 0.358-0.108 0.517l0.003-0.008c-0.069 0.161-0.168 0.296-0.29 0.406l-0.001 0.001c-0.129 0.115-0.281 0.205-0.449 0.264l-0.009 0.003c-0.176 0.060-0.379 0.094-0.589 0.094s-0.414-0.035-0.603-0.098l0.013 0.004c-0.176-0.063-0.327-0.154-0.456-0.269l0.001 0.001c-0.124-0.112-0.224-0.249-0.292-0.403l-0.003-0.008c-0.066-0.155-0.105-0.335-0.105-0.524s0.038-0.369 0.108-0.533l-0.003 0.009c0.066-0.154 0.166-0.294 0.295-0.412 0.129-0.113 0.284-0.201 0.455-0.258 0.176-0.061 0.379-0.096 0.59-0.096s0.414 0.035 0.603 0.1l-0.013-0.004c0.172 0.060 0.328 0.151 0.457 0.267 0.128 0.117 0.228 0.256 0.293 0.406 0.072 0.169 0.107 0.348 0.105 0.528zM9.338 29.549c0-0.007 0-0.014 0-0.022 0-0.144-0.027-0.281-0.077-0.407l0.003 0.008c-0.094-0.243-0.287-0.429-0.529-0.512l-0.006-0.002c-0.128-0.044-0.275-0.069-0.428-0.069s-0.301 0.025-0.438 0.072l0.010-0.003c-0.127 0.045-0.237 0.113-0.328 0.2l0-0c-0.090 0.086-0.162 0.191-0.207 0.309l-0.002 0.006c-0.047 0.125-0.074 0.27-0.074 0.421s0.027 0.296 0.077 0.43l-0.003-0.009c0.094 0.243 0.288 0.429 0.531 0.51l0.006 0.002c0.276 0.090 0.58 0.090 0.857 0 0.124-0.043 0.237-0.111 0.327-0.197 0.093-0.092 0.164-0.199 0.208-0.315 0.052-0.135 0.077-0.278 0.074-0.421zM12.801 29.991l0.041 0.094c0.015-0.033 0.028-0.064 0.044-0.094 0.015-0.032 0.032-0.063 0.050-0.092l0.991-1.565c0.020-0.027 0.037-0.044 0.057-0.049s0.044-0.009 0.068-0.009c0.005 0 0.009 0 0.014 0l-0.001-0h0.293v2.546h-0.347v-1.951c-0.001-0.013-0.001-0.029-0.001-0.044s0.001-0.031 0.002-0.046l-0 0.002-0.998 1.587c-0.014 0.025-0.034 0.044-0.058 0.057l-0.001 0c-0.024 0.013-0.053 0.021-0.084 0.021-0.001 0-0.001 0-0.002 0h-0.056c-0.001 0-0.001 0-0.002 0-0.031 0-0.059-0.008-0.084-0.022l0.001 0c-0.024-0.014-0.044-0.033-0.057-0.057l-0-0.001-1.026-1.597v2.044h-0.335v-2.541h0.292c0.004-0 0.009-0 0.014-0 0.024 0 0.048 0.003 0.070 0.009l-0.002-0c0.024 0.011 0.043 0.028 0.054 0.049l1.012 1.567c0.020 0.028 0.037 0.059 0.050 0.091zM16.529 29.865v0.953h-0.387v-2.541h0.865c0.164-0.003 0.326 0.016 0.483 0.055 0.125 0.031 0.242 0.085 0.341 0.159 0.083 0.066 0.148 0.149 0.192 0.245l0.002 0.004c0.046 0.104 0.068 0.215 0.066 0.326 0 0.005 0 0.011 0 0.016 0 0.229-0.11 0.433-0.279 0.562l-0.002 0.001c-0.1 0.076-0.216 0.134-0.343 0.168-0.131 0.038-0.282 0.059-0.437 0.059-0.011 0-0.021-0-0.032-0l-0.468-0.007zM16.529 29.591h0.469c0.102 0.001 0.203-0.012 0.301-0.038 0.083-0.024 0.155-0.062 0.218-0.111l-0.002 0.001c0.109-0.090 0.178-0.226 0.178-0.377 0-0.002 0-0.004-0-0.006v0c0.001-0.008 0.001-0.018 0.001-0.027 0-0.065-0.014-0.127-0.040-0.182l0.001 0.003c-0.033-0.069-0.078-0.127-0.134-0.173l-0.001-0.001c-0.13-0.087-0.289-0.139-0.461-0.139-0.022 0-0.043 0.001-0.064 0.002l0.003-0h-0.469v1.047zM21.741 30.821h-0.306c-0.002 0-0.004 0-0.006 0-0.029 0-0.057-0.009-0.080-0.024l0.001 0c-0.022-0.015-0.039-0.035-0.051-0.058l-0-0.001-0.263-0.614h-1.325l-0.273 0.614c-0.024 0.049-0.073 0.083-0.131 0.083-0.001 0-0.003-0-0.004-0h-0.307l1.163-2.546h0.403l1.179 2.546zM19.821 29.876h1.094l-0.462-1.035c-0.030-0.066-0.060-0.145-0.084-0.227l-0.003-0.012-0.045 0.133c-0.014 0.041-0.028 0.078-0.043 0.108l-0.457 1.034zM23.416 28.288c0.023 0.011 0.043 0.026 0.058 0.045l1.696 1.919v-1.976h0.347v2.546h-0.193c-0.001 0-0.003 0-0.004 0-0.027 0-0.053-0.006-0.076-0.016l0.001 0c-0.024-0.012-0.045-0.028-0.062-0.047l-0-0-1.695-1.917c0.001 0.013 0.001 0.028 0.001 0.044s-0 0.031-0.002 0.046l0-0.002v1.892h-0.347v-2.545h0.206c0.023 0 0.048 0.004 0.070 0.012zM28.375 29.809v1.011h-0.388v-1.010l-1.072-1.533h0.347c0.003-0 0.006-0 0.008-0 0.028 0 0.054 0.008 0.075 0.022l-0.001-0c0.021 0.016 0.038 0.035 0.052 0.057l0.001 0.001 0.671 0.989c0.046 0.065 0.086 0.14 0.116 0.219l0.002 0.007 0.051-0.11c0.018-0.041 0.041-0.079 0.065-0.117l0.661-0.996c0.014-0.021 0.031-0.038 0.049-0.054l0-0c0.021-0.016 0.048-0.025 0.077-0.025 0.003 0 0.005 0 0.008 0l-0-0h0.351l-1.074 1.54zM12.609 24.004c0.169 0.018 0.34 0.033 0.512 0.047 2.617-1.017 4.829-2.681 6.363-4.784s2.319-4.553 2.259-7.043l-2.883-2.505c0.586 2.65 0.311 5.39-0.792 7.913s-2.994 4.729-5.459 6.372z"></path>
<path fill="#" style="" d="M11.58 23.888l0.078 0.014c2.634-1.638 4.641-3.923 5.764-6.562s1.308-5.51 0.533-8.242l-4.107-3.568c1.66 2.933 2.33 6.215 1.927 9.465-0.401 3.25-1.856 6.333-4.196 8.892zM25.506 15.166c-0.698 2.735-2.392 5.202-4.831 7.034-0.666 0.507-1.418 0.983-2.21 1.392l-0.086 0.040c1.987-0.508 3.812-1.404 5.337-2.622s2.707-2.722 3.456-4.4l-1.665-1.445z"></path>
<path fill="#" style="" d="M24.853 14.763l-2.371-2.060c-0.046 2.349-0.814 4.644-2.226 6.648s-3.416 3.641-5.803 4.745h0.011c0.532 0 1.063-0.028 1.591-0.082 2.231-0.791 4.202-2.050 5.737-3.664s2.586-3.533 3.060-5.586zM11.922 4.026l-2.829-2.461c-2.529 0.849-4.703 2.342-6.24 4.282s-2.362 4.24-2.37 6.595c0.009 2.603 1.018 5.129 2.866 7.177 1.847 2.049 4.428 3.504 7.334 4.134 2.595-2.746 4.114-6.14 4.336-9.687s-0.863-7.065-3.098-10.040zM31.388 14.384c-0.010-3.088-1.427-6.047-3.94-8.23s-5.919-3.413-9.473-3.423c-0.008-0-0.018-0-0.028-0-1.708 0-3.349 0.284-4.88 0.808l0.106-0.032 17.319 15.047c0.564-1.226 0.894-2.659 0.896-4.17v-0.001z"></path>
</symbol>
<symbol id="company-two" viewBox="0 0 32 32">
<path fill="#" style="" d="M14.224 1.806h-0.084c-0.129-0.008-0.258-0.011-0.388-0.014h-0.28c-0.244 0-0.494 0.006-0.741 0.018-0.008-0.001-0.018-0.001-0.028-0.001s-0.020 0-0.029 0.001l0.001-0c-2.376 0.138-4.582 0.733-6.576 1.696l0.104-0.045-0.266 0.128v13.626l0.623-0.212c0.546-0.188 1.129-0.357 1.731-0.513 1.488-0.398 3.202-0.638 4.967-0.661l0.014-0v1.79c-0.234 0.001-0.463 0.008-0.691 0.020l0.035-0.002h-0.052c-1.399 0.079-2.709 0.289-3.971 0.619l0.139-0.031c-1.734 0.441-3.254 1.050-4.666 1.83l0.1-0.051v-17.475c1.379-0.82 2.975-1.488 4.665-1.921l0.127-0.028c1.353-0.364 2.907-0.576 4.51-0.582h0.267c0.314 0.008 0.622 0.022 0.91 0.044 0.829 0.060 1.597 0.187 2.339 0.378l-0.090-0.020v1.762c-0.628-0.154-1.373-0.271-2.134-0.326l-0.045-0.003-0.044-0.004c-0.152-0.013-0.304-0.026-0.446-0.026zM17.325 3.607c0.391 0.030 0.796 0.044 1.205 0.044 1.689-0.007 3.324-0.228 4.881-0.639l-0.135 0.030c1.734-0.442 3.252-1.052 4.665-1.831l-0.101 0.051v17.163c-1.379 0.819-2.975 1.487-4.664 1.921l-0.127 0.028c-1.353 0.363-2.908 0.574-4.511 0.581h-0.004c-0.033 0-0.072 0-0.111 0-1.177 0-2.319-0.147-3.409-0.425l0.095 0.021v-17.275c0.265 0.062 0.537 0.118 0.814 0.164 0.455 0.077 0.934 0.133 1.401 0.167zM26.060 3.74l-0.623 0.209c-0.378 0.139-0.955 0.316-1.541 0.474l-0.19 0.044c-1.551 0.415-3.332 0.657-5.169 0.663h-0.004c-0.406 0-0.78-0.011-1.141-0.034l-0.497-0.033v14.017l0.426 0.037c0.395 0.035 0.803 0.052 1.214 0.052 1.45-0.006 2.853-0.198 4.189-0.553l-0.116 0.026c1.221-0.31 2.281-0.702 3.285-1.189l-0.102 0.044 0.266-0.128v-13.63z"></path>
<path fill="#" style="" d="M5.377 25.977c-0.167-0.173-0.401-0.281-0.661-0.281-0.011 0-0.023 0-0.034 0.001l0.002-0c-0.004-0-0.009-0-0.014-0-0.139 0-0.272 0.028-0.393 0.078l0.007-0.003c-0.237 0.095-0.42 0.28-0.51 0.512l-0.002 0.006c-0.049 0.123-0.073 0.254-0.071 0.386v2.335c-0.006 0.164 0.026 0.328 0.092 0.479 0.055 0.12 0.135 0.226 0.234 0.313 0.093 0.078 0.202 0.135 0.32 0.166 0.114 0.031 0.231 0.048 0.349 0.048 0.13 0.001 0.258-0.026 0.377-0.081 0.351-0.156 0.591-0.5 0.591-0.901v-0.261h-0.611v0.208c0 0.004 0 0.009 0 0.014 0 0.070-0.013 0.136-0.037 0.198l0.001-0.004c-0.021 0.052-0.051 0.095-0.088 0.132l-0 0c-0.070 0.054-0.159 0.088-0.255 0.089h-0c-0.011 0.001-0.023 0.002-0.036 0.002-0.103 0-0.194-0.050-0.25-0.127l-0.001-0.001c-0.051-0.082-0.082-0.182-0.082-0.289 0-0.008 0-0.016 0.001-0.024l-0 0.001v-2.177c-0.004-0.121 0.022-0.24 0.075-0.349 0.056-0.087 0.153-0.143 0.262-0.143 0.013 0 0.025 0.001 0.038 0.002l-0.002-0c0.003-0 0.008-0 0.012-0 0.107 0 0.201 0.052 0.26 0.131l0.001 0.001c0.063 0.082 0.101 0.187 0.101 0.3 0 0.005-0 0.009-0 0.014v-0.001 0.202h0.604v-0.238c0-0.003 0-0.007 0-0.011 0-0.143-0.027-0.28-0.077-0.405l0.003 0.007c-0.048-0.128-0.117-0.237-0.205-0.329l0 0zM9.002 25.951c-0.186-0.158-0.429-0.255-0.694-0.257h-0c-0.124 0-0.248 0.023-0.364 0.066-0.252 0.090-0.451 0.276-0.557 0.511l-0.002 0.006c-0.062 0.142-0.092 0.297-0.089 0.452v2.239c-0.004 0.158 0.026 0.314 0.089 0.458 0.055 0.121 0.135 0.228 0.236 0.313 0.094 0.086 0.203 0.154 0.322 0.197 0.117 0.043 0.24 0.065 0.364 0.066 0.267-0.001 0.51-0.1 0.695-0.264l-0.001 0.001c0.097-0.087 0.176-0.194 0.23-0.313 0.063-0.144 0.093-0.301 0.089-0.458v-2.239c0-0.006 0-0.013 0-0.020 0-0.156-0.033-0.305-0.092-0.439l0.003 0.007c-0.057-0.128-0.135-0.237-0.23-0.327l-0-0zM8.718 28.969c0.001 0.010 0.002 0.023 0.002 0.035 0 0.114-0.047 0.216-0.123 0.289l-0 0c-0.077 0.065-0.178 0.105-0.287 0.105s-0.21-0.040-0.288-0.105l0.001 0.001c-0.076-0.073-0.123-0.175-0.123-0.289 0-0.012 0.001-0.025 0.002-0.037l-0 0.002v-2.239c-0.001-0.010-0.001-0.022-0.001-0.034 0-0.113 0.047-0.216 0.123-0.289l0-0c0.077-0.065 0.178-0.105 0.287-0.105s0.21 0.040 0.288 0.105l-0.001-0.001c0.076 0.073 0.123 0.175 0.123 0.289 0 0.012-0.001 0.025-0.002 0.037l0-0.002v2.24zM13.764 29.969v-4.24h-0.586l-0.771 2.244h-0.010l-0.777-2.244h-0.58v4.239h0.606v-2.578h0.011l0.593 1.823h0.302l0.598-1.823h0.010v2.578h0.606zM17.205 26.027c-0.093-0.105-0.211-0.185-0.342-0.232-0.124-0.042-0.267-0.066-0.416-0.066-0.008 0-0.016 0-0.024 0l0.001-0h-0.9v4.24h0.604v-1.656h0.311c0.015 0.001 0.032 0.001 0.050 0.001 0.18 0 0.351-0.043 0.501-0.12l-0.006 0.003c0.139-0.078 0.251-0.188 0.329-0.32l0.002-0.004c0.070-0.113 0.117-0.238 0.138-0.369 0.021-0.133 0.033-0.287 0.033-0.444 0-0.013-0-0.027-0-0.040l0 0.002c0.006-0.203-0.014-0.407-0.059-0.606-0.043-0.153-0.12-0.284-0.223-0.39l0 0zM16.894 27.319c-0.003 0.081-0.023 0.157-0.057 0.224l0.001-0.003c-0.035 0.065-0.089 0.116-0.154 0.147l-0.002 0.001c-0.075 0.034-0.162 0.054-0.254 0.054-0.011 0-0.022-0-0.033-0.001l0.002 0h-0.276v-1.441h0.311c0.009-0 0.019-0.001 0.029-0.001 0.088 0 0.172 0.020 0.247 0.055l-0.004-0.002c0.062 0.036 0.111 0.090 0.141 0.154l0.001 0.002c0.032 0.069 0.051 0.15 0.053 0.236v0.283c0 0.098 0.006 0.201 0 0.291h-0.006zM20.066 25.729h-0.495l-0.934 4.24h0.604l0.177-0.911h0.823l0.178 0.911h0.604l-0.958-4.24zM19.509 28.481l0.297-1.537h0.011l0.295 1.537h-0.604zM23.969 28.283h-0.011l-0.912-2.554h-0.581v4.24h0.604v-2.55h0.012l0.923 2.549h0.568v-4.239h-0.604v2.554zM27.66 25.729l-0.486 1.686h-0.012l-0.486-1.686h-0.639l0.83 2.448v1.791h0.604v-1.791l0.83-2.447h-0.64zM3.692 31.166h0.291v0.817h0.198v-0.817h0.289v-0.167h-0.778v0.168zM6.14 30.998l-0.382 0.985h0.21l0.081-0.224h0.392l0.084 0.224h0.215l-0.391-0.985h-0.21zM6.109 31.593l0.134-0.365 0.134 0.365h-0.268zM8.559 31.62h0.228v0.127c-0.063 0.051-0.145 0.082-0.234 0.083h-0c-0.004 0-0.009 0-0.014 0-0.079 0-0.149-0.037-0.195-0.094l-0-0c-0.046-0.065-0.073-0.147-0.073-0.234 0-0.008 0-0.016 0.001-0.023l-0 0.001c0-0.219 0.095-0.329 0.283-0.329 0.006-0.001 0.014-0.001 0.021-0.001 0.097 0 0.178 0.067 0.201 0.157l0 0.001 0.194-0.038c-0.042-0.192-0.18-0.289-0.417-0.289-0.004-0-0.008-0-0.013-0-0.127 0-0.244 0.048-0.331 0.127l0-0c-0.088 0.087-0.143 0.208-0.143 0.342 0 0.013 0.001 0.026 0.002 0.038l-0-0.002c-0 0.007-0 0.015-0 0.023 0 0.132 0.048 0.254 0.127 0.347l-0.001-0.001c0.087 0.090 0.209 0.146 0.343 0.146 0.011 0 0.021-0 0.032-0.001l-0.001 0c0.005 0 0.010 0 0.016 0 0.155 0 0.296-0.060 0.402-0.157l-0 0v-0.388h-0.426v0.166zM11.030 30.998h-0.199v0.985h0.689v-0.167h-0.49v-0.817zM13.119 30.998h-0.199v0.985h0.199v-0.985zM15.161 31.655l-0.404-0.657h-0.193v0.985h0.185v-0.643l0.396 0.643h0.198v-0.985h-0.182v0.658zM17.007 31.549h0.49v-0.167h-0.49v-0.215h0.527v-0.168h-0.727v0.985h0.747v-0.167h-0.548v-0.266zM21.484 31.386h-0.388v-0.388h-0.197v0.984h0.197v-0.431h0.388v0.431h0.198v-0.985h-0.198v0.388zM23.342 31.549h0.492v-0.167h-0.492v-0.215h0.529v-0.168h-0.726v0.985h0.746v-0.167h-0.548v-0.266zM25.86 31.55c0.171-0.027 0.258-0.118 0.258-0.274 0.001-0.008 0.002-0.018 0.002-0.028 0-0.079-0.038-0.148-0.098-0.191l-0.001-0c-0.073-0.037-0.159-0.059-0.25-0.059-0.014 0-0.027 0-0.040 0.001l0.002-0h-0.417v0.984h0.198v-0.412h0.039c0.005-0 0.010-0 0.016-0 0.039 0 0.076 0.008 0.109 0.023l-0.002-0.001c0.029 0.018 0.053 0.042 0.070 0.071l0.001 0.001 0.215 0.313h0.236l-0.12-0.192c-0.054-0.096-0.128-0.175-0.215-0.235l-0.002-0.002zM25.661 31.413h-0.146v-0.247h0.156c0.012-0.001 0.027-0.002 0.042-0.002 0.057 0 0.111 0.009 0.163 0.026l-0.004-0.001c0.026 0.024 0.043 0.058 0.043 0.096 0 0.042-0.020 0.080-0.052 0.104l-0 0c-0.049 0.016-0.106 0.025-0.164 0.025-0.013 0-0.026-0-0.039-0.001l0.002 0zM27.76 31.549h0.49v-0.167h-0.49v-0.215h0.529v-0.168h-0.729v0.985h0.747v-0.167h-0.548v-0.266z"></path>
</symbol>
<symbol id="diagram" viewBox="0 0 32 32">
<path fill="#2196f3" style="fill: var(--color1, #2196f3)" d="M14.926 14.965h1.066v4.798h-1.066v-4.798zM19.19 17.097h1.066v2.665h-1.066v-2.665zM10.661 18.696h1.066v1.066h-1.066v-1.066zM7.463 18.163h1.066v1.599h-1.066v-1.599z"></path>
<path fill="#212121" style="fill: var(--color2, #212121)" d="M1.599 28.291h25.586c0 0 0 0 0 0 0.883 0 1.599-0.716 1.599-1.599v0-2.132c0-0.883-0.716-1.599-1.599-1.599v0h-0.533v-13.294l3.028-2.868c0.207 0.104 0.452 0.166 0.711 0.166 0.888 0 1.608-0.72 1.608-1.608s-0.72-1.608-1.608-1.608c-0.888 0-1.608 0.72-1.608 1.608 0 0.247 0.056 0.481 0.155 0.69l-0.004-0.010-2.281 2.162v-1.23c0-0.883-0.716-1.599-1.599-1.599v0h-21.323c-0.883 0-1.599 0.716-1.599 1.599v0 15.992h-0.533c-0.883 0-1.599 0.716-1.599 1.599v0 2.132c0 0.883 0.716 1.599 1.599 1.599v0zM30.384 4.837c0.294 0 0.533 0.239 0.533 0.533s-0.239 0.533-0.533 0.533v0c-0.294 0-0.533-0.239-0.533-0.533s0.239-0.533 0.533-0.533v0zM3.198 6.969c0-0.294 0.239-0.533 0.533-0.533h21.323c0.294 0 0.533 0.239 0.533 0.533v2.239l-1.066 1.013v-2.185c0-0.295-0.239-0.534-0.534-0.534h-19.189c-0.294 0-0.534 0.239-0.534 0.533v13.327c0 0.294 0.239 0.533 0.534 0.533h19.189c0.295 0 0.534-0.239 0.534-0.533v-9.675l1.066-1.010v12.283h-22.389v-15.991zM7.996 13.899c-0.001 0-0.003 0-0.005 0-0.883 0-1.599 0.716-1.599 1.599s0.716 1.599 1.599 1.599c0.432 0 0.824-0.172 1.112-0.45l-0 0 1.853 0.93c0.069 0.035 0.151 0.056 0.238 0.056 0.158 0 0.3-0.069 0.398-0.178l0-0.001 3.939-4.432 3.872 2.902c0.208 0.155 0.498 0.139 0.686-0.039l3.365-3.188v8.131h-18.123v-12.261h18.123v2.661l-3.771 3.572-3.904-2.927c-0.088-0.067-0.2-0.107-0.32-0.107-0.158 0-0.3 0.069-0.398 0.178l-0 0.001-3.993 4.493-1.493-0.746c0.011-0.064 0.017-0.128 0.020-0.193 0-0.883-0.716-1.599-1.599-1.599v0zM8.529 15.498c0 0.294-0.239 0.533-0.533 0.533s-0.533-0.239-0.533-0.533v0c0-0.294 0.239-0.533 0.533-0.533s0.533 0.239 0.533 0.533v0zM11.727 24.026h5.33v0.533c0 0.294-0.238 0.533-0.533 0.533h-4.265c-0.294 0-0.533-0.239-0.533-0.533v0-0.533zM1.067 24.56c0-0.294 0.238-0.533 0.533-0.533h9.062v0.533c0 0.883 0.716 1.599 1.599 1.599v0h4.265c0.883 0 1.599-0.716 1.599-1.599v0-0.533h9.062c0.294 0 0.533 0.239 0.533 0.533v2.132c0 0.294-0.239 0.533-0.533 0.533h-25.586c-0 0-0 0-0 0-0.294 0-0.533-0.239-0.533-0.533 0 0 0 0 0 0v0-2.132z"></path>
</symbol>
<symbol id="envelope" viewBox="0 0 32 ">
<path d="M14.5 0h-13C.673 0 0 .673 0 1.5v9c0 .827.673 1.5 1.5 1.5h13c.827 0 1.5-.673 1.5-1.5v-9c0-.827-.673-1.5-1.5-1.5Zm0 1c.068 0 .133.014.192.039L8 6.839l-6.692-5.8A.498.498 0 0 1 1.5 1h13Zm0 10h-13a.5.5 0 0 1-.5-.5V2.095l6.672 5.783a.5.5 0 0 0 .656 0L15 2.095V10.5a.5.5 0 0 1-.5.5Z" fill="#"/>
</symbol>
<symbol id="facebook" viewBox="0 0 32 32">
<path fill="#" style="	" d="M21.328 5.312h2.923v-5.088c-1.232-0.143-2.66-0.224-4.107-0.224-0.052 0-0.104 0-0.157 0l0.008-0c-4.213 0-7.099 2.65-7.099 7.52v4.48h-4.646v5.688h4.646v14.312h5.699v-14.31h4.459l0.709-5.688h-5.17v-3.922c0-1.643 0.443-2.768 2.734-2.768z"></path>
</symbol>
<symbol id="instagram" viewBox="0 0 32 32">
<path fill="#" style="" d="M31.968 9.408c-0.074-1.701-0.349-2.869-0.742-3.882-0.424-1.111-1.054-2.059-1.85-2.837l-0.001-0.001c-0.78-0.792-1.724-1.419-2.778-1.827l-0.054-0.018c-1.019-0.394-2.181-0.667-3.882-0.742-1.712-0.082-2.256-0.101-6.602-0.101-4.344 0-4.888 0.019-6.595 0.094-1.699 0.074-2.869 0.349-3.88 0.742-1.112 0.424-2.060 1.054-2.839 1.85l-0.001 0.001c-0.791 0.78-1.418 1.724-1.825 2.778l-0.018 0.054c-0.395 1.019-0.669 2.181-0.744 3.882-0.082 1.712-0.101 2.256-0.101 6.602 0 4.344 0.019 4.888 0.094 6.595 0.075 1.701 0.35 2.869 0.744 3.882 0.426 1.11 1.055 2.057 1.849 2.837l0.001 0.001c0.78 0.792 1.724 1.418 2.778 1.825l0.054 0.018c1.019 0.395 2.182 0.67 3.882 0.744 1.707 0.075 2.251 0.094 6.595 0.094 4.346 0 4.89-0.019 6.595-0.094 1.701-0.074 2.869-0.349 3.882-0.742 2.157-0.85 3.833-2.526 4.664-4.628l0.019-0.055c0.394-1.019 0.669-2.182 0.744-3.882 0.075-1.707 0.093-2.251 0.093-6.595s-0.006-4.888-0.080-6.595zM29.088 22.474c-0.070 1.563-0.333 2.406-0.55 2.97-0.552 1.399-1.64 2.486-3.004 3.024l-0.036 0.012c-0.56 0.219-1.411 0.482-2.968 0.55-1.688 0.075-2.194 0.094-6.464 0.094-4.269 0-4.782-0.019-6.464-0.094-1.563-0.069-2.406-0.331-2.97-0.55-0.721-0.269-1.334-0.676-1.836-1.192l-0.001-0.001c-0.517-0.503-0.924-1.117-1.184-1.803l-0.011-0.034c-0.218-0.563-0.48-1.413-0.549-2.97-0.075-1.688-0.094-2.195-0.094-6.464 0-4.27 0.019-4.784 0.094-6.464 0.069-1.563 0.331-2.406 0.549-2.97 0.269-0.722 0.678-1.337 1.198-1.837l0.002-0.002c0.504-0.517 1.119-0.923 1.806-1.182l0.034-0.011c0.56-0.219 1.411-0.48 2.968-0.55 1.688-0.074 2.195-0.093 6.464-0.093 4.275 0 4.782 0.019 6.464 0.093 1.563 0.069 2.406 0.331 2.97 0.55 0.693 0.256 1.325 0.662 1.837 1.194 0.531 0.52 0.938 1.144 1.195 1.84 0.218 0.56 0.48 1.411 0.549 2.968 0.075 1.688 0.094 2.194 0.094 6.464 0 4.269-0.019 4.768-0.094 6.458z"></path>
<path fill="" style="" d="M16.059 7.782c-4.539 0.002-8.218 3.682-8.219 8.221v0c0 0 0 0.001 0 0.002 0 4.541 3.681 8.222 8.222 8.222s8.222-3.681 8.222-8.222c0-4.541-3.681-8.222-8.222-8.222-0.001 0-0.001 0-0.002 0h0zM16.059 21.334c-2.945-0-5.332-2.388-5.332-5.333s2.388-5.333 5.333-5.333c0 0 0.001 0 0.001 0h-0c2.946 0 5.334 2.388 5.334 5.334s-2.388 5.334-5.334 5.334v0zM26.525 7.458c0 1.060-0.86 1.92-1.92 1.92s-1.92-0.86-1.92-1.92v0c0-1.060 0.86-1.92 1.92-1.92s1.92 0.86 1.92 1.92v0z"></path>
</symbol>
<symbol id="linkedin" viewBox="0 0 32 32">
<path fill="#" style="" d="M31.992 32h0.008v-11.738c0-5.741-1.235-10.163-7.947-10.163-3.227 0-5.392 1.77-6.277 3.45h-0.093v-2.914h-6.365v21.363h6.627v-10.578c0-2.786 0.528-5.48 3.978-5.48 3.398 0 3.45 3.179 3.45 5.658v10.402h6.619zM0.528 10.635h6.635v21.365h-6.635v-21.365zM3.843 0c-2.123 0-3.843 1.721-3.843 3.843v0c0 2.12 1.722 3.878 3.843 3.878 2.12 0 3.842-1.757 3.842-3.878s-1.72-3.841-3.841-3.843h-0z"></path>
</symbol>
<symbol id="satellite" viewBox="0 0 30 32">
<path fill="#212121" style="fill: var(--color2, #212121)" d="M29.859 22.098l-8.443-8.505 0.937-4.616c0.225 0.090 0.485 0.144 0.758 0.146h0.007c0.008 0 0.017 0 0.026 0 1.192 0 2.159-0.967 2.159-2.159s-0.967-2.159-2.159-2.159c-1.192 0-2.159 0.967-2.159 2.159 0 0.259 0.046 0.508 0.13 0.739l-0.005-0.015-4.96 0.606-8.091-8.133c-0.096-0.098-0.229-0.159-0.376-0.16h-0c-0.146 0.001-0.278 0.060-0.373 0.155l0-0-1.512 1.504c-0.096 0.097-0.156 0.23-0.156 0.377s0.060 0.281 0.156 0.377v0l0.814 0.825c-1.143 2.062-1.816 4.522-1.816 7.139 0 4.106 1.656 7.824 4.336 10.525l-0.001-0.001c0.043 0.041 0.092 0.074 0.146 0.097-0.032 0.164-0.051 0.353-0.052 0.546v6.188h-6.4c-1.472 0.001-2.666 1.194-2.667 2.666v1.067c0 0.295 0.239 0.534 0.534 0.534h24.534c0.294 0 0.533-0.239 0.533-0.534v-1.067c-0.002-1.472-1.195-2.665-2.666-2.666h-6.4v-2.742c1.003 0.21 2.024 0.317 3.049 0.32 2.58-0.003 5.005-0.663 7.117-1.822l-0.077 0.039 0.818 0.823c0.099 0.101 0.235 0.159 0.376 0.16 0.14-0.001 0.274-0.057 0.373-0.155l1.512-1.504c0.096-0.097 0.156-0.23 0.156-0.377s-0.060-0.281-0.156-0.377v0zM22.366 6.233c0.193-0.192 0.459-0.31 0.752-0.31 0.589 0 1.067 0.478 1.067 1.066s-0.477 1.066-1.067 1.066c-0 0-0 0-0 0h-0.004c-0.587-0.003-1.061-0.479-1.061-1.066 0-0.295 0.12-0.563 0.314-0.756l0-0h-0.002zM21.11 9.737l-0.598 2.946-1.175-1.183 1.774-1.763zM20.504 8.835l-1.92 1.909-1.486-1.493 3.406-0.416zM23.090 28.8c0.884 0 1.6 0.716 1.6 1.6v0 0.534h-23.466v-0.534c0-0.884 0.716-1.6 1.6-1.6v0h20.267zM15.623 26.666v1.067h-5.334v-1.067h5.334zM10.29 25.6v-4.053c0-1.294 1.196-2.346 2.666-2.346s2.667 1.053 2.667 2.346v4.053h-5.333zM16.69 23.904v-2.357c0-1.882-1.675-3.413-3.733-3.413-0.017-0-0.038-0-0.058-0-1.353 0-2.54 0.707-3.213 1.771l-0.009 0.016c-2.36-2.482-3.812-5.846-3.812-9.55 0-2.314 0.567-4.496 1.569-6.414l-0.036 0.077 18.602 18.708c-1.823 0.947-3.98 1.502-6.267 1.502-1.078 0-2.128-0.124-3.135-0.357l0.093 0.018zM27.979 23.22l-21.057-21.181 0.754-0.752 7.935 7.98c0.004 0 0.006 0.007 0.010 0.010l13.115 13.191-0.757 0.752z"></path>
<path fill="#2196f3" style="fill: var(--color1, #2196f3)" d="M12.961 20.267h-0.005c-0.001 0-0.002 0-0.002 0-0.884 0-1.6 0.716-1.6 1.6s0.715 1.599 1.597 1.6h0.005c0.001 0 0.001 0 0.002 0 0.884 0 1.6-0.716 1.6-1.6s-0.715-1.599-1.598-1.6h-0zM13.334 22.245c-0.096 0.096-0.229 0.155-0.376 0.155-0.295 0-0.534-0.239-0.534-0.534s0.238-0.533 0.532-0.533h0c0.293 0.001 0.531 0.239 0.531 0.533 0 0.148-0.060 0.282-0.157 0.378l-0 0h0.005z"></path>
</symbol>
<symbol id="smartphone" viewBox="0 0 32 ">
<path d="M8.5 0h-7C.673 0 0 .673 0 1.5v13c0 .827.673 1.5 1.5 1.5h7c.827 0 1.5-.673 1.5-1.5v-13C10 .673 9.327 0 8.5 0Zm-7 1h7a.5.5 0 0 1 .5.5V12H1V1.5a.5.5 0 0 1 .5-.5Zm7 14h-7a.5.5 0 0 1-.5-.5V13h8v1.5a.5.5 0 0 1-.5.5Z" fill="#"/><path d="M2.354 13.739a.445.445 0 0 1 0 .66.525.525 0 0 1-.708 0 .445.445 0 0 1 0-.66.525.525 0 0 1 .708 0Z" fill="#"/>
</symbol>
<symbol id="twitter" viewBox="0 0 32 32">
<path fill="#" style="" d="M32 6.078c-1.1 0.493-2.376 0.857-3.713 1.028l-0.068 0.007c1.36-0.817 2.382-2.078 2.873-3.579l0.013-0.046c-1.197 0.722-2.591 1.273-4.076 1.573l-0.084 0.014c-1.2-1.279-2.9-2.076-4.787-2.076-3.622 0-6.558 2.936-6.558 6.558 0 0.001 0 0.003 0 0.004v-0c0 0.52 0.043 1.021 0.152 1.496-5.454-0.266-10.28-2.88-13.522-6.861-0.564 0.949-0.899 2.092-0.902 3.313v0.001c0 2.272 1.171 4.286 2.914 5.451-1.091-0.030-2.107-0.325-2.994-0.823l0.033 0.017v0.072c0.003 3.165 2.236 5.807 5.213 6.44l0.043 0.008c-0.499 0.136-1.071 0.215-1.662 0.215-0.020 0-0.041-0-0.061-0l0.003 0c-0.419 0-0.843-0.024-1.242-0.112 0.85 2.598 3.261 4.509 6.13 4.57-2.215 1.746-5.045 2.8-8.122 2.8-0.004 0-0.008 0-0.013 0h0.001c-0.018 0-0.040 0-0.062 0-0.531 0-1.055-0.034-1.569-0.099l0.061 0.006c2.826 1.846 6.287 2.944 10.004 2.944 0.021 0 0.042-0 0.063-0h-0.003c12.072 0 18.672-10 18.672-18.669 0-0.288-0.010-0.57-0.024-0.848 1.299-0.936 2.39-2.064 3.258-3.355l0.030-0.047z"></path>
</symbol>
</defs>
</svg>
